<?xml version="1.0" encoding="UTF-8"?>
<svg width="48" height="48" viewBox="0 0 48 48" xmlns="http://www.w3.org/2000/svg">
  <defs>
    <linearGradient id="assistBg" x1="0%" y1="0%" x2="100%" y2="100%">
      <stop offset="0%" style="stop-color:#6366F1"/>
      <stop offset="100%" style="stop-color:#8B5CF6"/>
    </linearGradient>
    <linearGradient id="glow" x1="0%" y1="0%" x2="0%" y2="100%">
      <stop offset="0%" style="stop-color:#A78BFA;stop-opacity:0.6"/>
      <stop offset="100%" style="stop-color:#6366F1;stop-opacity:0"/>
    </linearGradient>
  </defs>
  <!-- Rounded square background -->
  <rect x="2" y="2" width="44" height="44" rx="10" ry="10" fill="url(#assistBg)"/>
  <!-- Chat bubble body -->
  <path d="M12 14 h24 a4 4 0 0 1 4 4 v12 a4 4 0 0 1 -4 4 h-6 l-4 4 -4 -4 h-10 a4 4 0 0 1 -4 -4 v-12 a4 4 0 0 1 4 -4 z" fill="white" fill-opacity="0.95"/>
  <!-- YoLo text inside bubble -->
  <text x="16" y="29" font-family="Helvetica, Arial, sans-serif" font-weight="bold" font-size="10" fill="#6366F1">YoLo</text>
  <!-- AI sparkle dots -->
  <circle cx="35" cy="21" r="1.5" fill="#6366F1" opacity="0.7"/>
  <circle cx="38" cy="18" r="1" fill="#8B5CF6" opacity="0.5"/>
  <circle cx="33" cy="17" r="1" fill="#A78BFA" opacity="0.6"/>
  <!-- Sound wave arcs (voice indicator) -->
  <path d="M32 24 q2 -2 0 -4" stroke="#6366F1" stroke-width="1.2" fill="none" opacity="0.6"/>
  <path d="M35 22 q3 -3 0 -6" stroke="#8B5CF6" stroke-width="1" fill="none" opacity="0.4"/>
</svg>
